<?xml version="1.0" encoding="UTF-8" standalone="no"?>
<!-- Created with Inkscape (http://www.inkscape.org/) -->

<svg
   xmlns:dc="http://purl.org/dc/elements/1.1/"
   xmlns:cc="http://creativecommons.org/ns#"
   xmlns:rdf="http://www.w3.org/1999/02/22-rdf-syntax-ns#"
   xmlns:svg="http://www.w3.org/2000/svg"
   xmlns="http://www.w3.org/2000/svg"
   xmlns:sodipodi="http://sodipodi.sourceforge.net/DTD/sodipodi-0.dtd"
   xmlns:inkscape="http://www.inkscape.org/namespaces/inkscape"
   width="210mm"
   height="297mm"
   viewBox="0 0 210 297"
   version="1.1"
   id="svg8"
   inkscape:version="0.92.1 r15371"
   sodipodi:docname="logojavi.svg">
  <defs
     id="defs2" />
  <sodipodi:namedview
     id="base"
     pagecolor="#ffffff"
     bordercolor="#666666"
     borderopacity="1.0"
     inkscape:pageopacity="0.0"
     inkscape:pageshadow="2"
     inkscape:zoom="0.35"
     inkscape:cx="400"
     inkscape:cy="560"
     inkscape:document-units="mm"
     inkscape:current-layer="layer1"
     showgrid="false"
     inkscape:window-width="1024"
     inkscape:window-height="705"
     inkscape:window-x="-8"
     inkscape:window-y="-8"
     inkscape:window-maximized="1" />
  <metadata
     id="metadata5">
    <rdf:RDF>
      <cc:Work
         rdf:about="">
        <dc:format>image/svg+xml</dc:format>
        <dc:type
           rdf:resource="http://purl.org/dc/dcmitype/StillImage" />
        <dc:title></dc:title>
      </cc:Work>
    </rdf:RDF>
  </metadata>
  <g
     inkscape:label="Capa 1"
     inkscape:groupmode="layer"
     id="layer1">
    <g
       id="g4055"
       transform="matrix(0.94833948,0,0,0.78807942,7.2080477,66.164459)">
      <ellipse
         ry="57.074402"
         rx="102.43155"
         cy="41.110119"
         cx="95.627975"
         id="path4040"
         style="fill:#ff0000;stroke-width:0.19830458" />
      <g
         transform="matrix(0.63705873,0,0,0.43249057,23.002133,-36.825168)"
         id="g4028">
        <rect
           style="fill:#0000ff;stroke-width:0.23794268"
           id="rect3831"
           width="172.35718"
           height="41.039555"
           x="21.720003"
           y="113.60596"
           ry="14.376446" />
        <path
           style="fill:#ffff00;stroke-width:0.80735111"
           d="m 33.039496,147.19092 c 0,-1.67837 0.142587,-1.72866 3.753511,-1.32391 7.372049,0.82633 19.43691,0.42014 22.68382,-0.7637 l 3.013313,-1.09867 0.315379,-9.95752 0.315384,-9.95753 h -9.266067 c -9.113852,0 -9.266067,-0.0231 -9.266067,-1.41095 v -1.41094 h 15.014056 15.014051 l -0.0043,10.86428 c -0.0037,9.63388 -0.249981,11.06114 -2.173504,12.60259 -2.953368,2.36668 -9.751799,3.88586 -16.301057,3.64262 -9.051691,-0.33618 -13.14564,-0.3065 -18.190104,0.13184 -4.904303,0.42618 -4.90843,0.42507 -4.90843,-1.31811 z"
           id="path3917"
           inkscape:connector-curvature="0" />
        <path
           style="fill:#00ffff;stroke-width:0.69112182"
           d="m 83.992596,136.74853 0.21472,-15.48083 h 4.79522 4.79522 l 7.662284,8.52999 c 4.21426,4.69149 7.93186,8.52998 8.26133,8.52998 0.32947,0 3.91929,-3.83849 7.97738,-8.52998 l 7.37834,-8.52999 h 4.86379 4.86379 v 14.4809 c 0,7.96449 0.20649,14.93064 0.45886,15.48035 0.38135,0.83065 -0.19064,0.99944 -3.38676,0.99944 h -3.8456 l -0.20402,-13.42682 -0.20403,-13.42684 -8.14661,9.00388 c -10.74853,11.87958 -9.8698,11.87272 -20.228434,0.15796 -4.30204,-4.86526 -8.11014,-8.84592 -8.46244,-8.84592 -0.35229,0 -0.54236,5.97127 -0.42236,13.26948 l 0.21818,13.26949 -3.40179,-1.3e-4 -3.40179,-1.2e-4 z"
           id="path3919"
           inkscape:connector-curvature="0" />
        <path
           style="fill:#ff0000;stroke-width:0.68609208"
           d="m 160.99367,150.94466 -4.72951,-0.62341 -9.82257,-14.15389 c -5.40242,-7.78463 -9.82257,-14.33019 -9.82257,-14.54571 0,-0.21531 1.61585,-0.38317 3.59077,-0.37222 l 3.59077,0.0183 8.97313,13.3684 c 4.93522,7.35262 9.18744,13.36813 9.4494,13.36782 0.26195,-2.4e-4 4.55842,-6.02341 9.5477,-13.38474 l 9.07143,-13.38419 3.65243,-0.003 3.65243,-0.003 -1.48564,2.02374 c -4.55575,6.20582 -19.04839,27.45542 -19.04839,27.9294 0,0.62739 -0.0726,0.62478 -6.61938,-0.23811 z"
           id="path3921"
           inkscape:connector-curvature="0" />
        <rect
           style="fill:#0000ff;stroke-width:0.21002261"
           id="rect3975"
           width="44.734016"
           height="55.974094"
           x="90.581451"
           y="154.23015"
           ry="3.3342612" />
        <rect
           style="fill:#0000ff;stroke-width:0.27838984"
           id="rect3977"
           width="108.85713"
           height="37.195774"
           x="26.458336"
           y="207.87029"
           ry="6.5092616" />
        <path
           inkscape:connector-curvature="0"
           id="path3988"
           d="m 26.739129,180.67209 0.280794,-27.19799 h 6.270799 6.270798 l 10.020112,14.98618 c 5.511067,8.2424 10.372642,14.98617 10.803496,14.98617 0.430854,0 5.125329,-6.74377 10.432169,-14.98617 L 80.46609,153.4741 h 6.360469 6.360469 v 25.44123 c 0,13.99267 0.270031,26.23138 0.60006,27.19715 0.498698,1.45935 -0.249304,1.7559 -4.42893,1.7559 h -5.028963 l -0.2668,-23.58934 -0.266814,-23.58938 -10.653474,15.81876 c -14.056054,20.87102 -12.906922,20.85897 -26.453101,0.27752 -5.625858,-8.54769 -10.605782,-15.54124 -11.066491,-15.54124 -0.460697,0 -0.709255,10.49082 -0.552328,23.31291 l 0.285318,23.31293 -4.448585,-2.3e-4 -4.448584,-2.1e-4 z"
           style="fill:#008000;stroke-width:1.04757011" />
        <path
           inkscape:connector-curvature="0"
           id="path3999"
           d="m 160.76635,209.03044 -5.03244,-1.15092 -10.45172,-26.13053 c -5.74845,-14.37178 -10.45171,-26.45602 -10.45171,-26.85391 0,-0.39749 1.71934,-0.70738 3.82076,-0.68717 l 3.82077,0.0338 9.54786,24.68038 c 5.25133,13.57421 9.77592,24.67988 10.05465,24.6793 0.27873,-4.4e-4 4.8504,-11.12025 10.15925,-24.71054 l 9.65246,-24.70953 3.88638,-0.006 3.88637,-0.006 -1.5808,3.73616 c -4.84755,11.45702 -20.26847,50.68746 -20.26847,51.56251 0,1.15827 -0.0773,1.15345 -7.04336,-0.43959 z"
           style="fill:#008000;stroke-width:0.96161211" />
        <g
           id="g4015"
           transform="matrix(0.87032759,0,0,0.63556643,16.563018,86.102626)">
          <path
             inkscape:connector-curvature="0"
             d="m 192.63808,205.72344 c 0.25316,1.93582 0.53046,2.43441 1.00166,4.55268 0.46177,2.1921 0.5791,4.43068 0.63219,6.66354 0.0247,1.60167 0.0167,3.2036 0.0135,4.80539 -0.004,1.71843 -0.005,3.43687 -0.005,5.15531 -5.3e-4,1.7729 -5.3e-4,3.5458 -5.3e-4,5.3187 0.15984,3.34592 -0.93271,6.41885 -2.34227,9.37985 -1.05837,2.50309 -3.05264,4.5758 -5.0616,6.34612 -3.30479,2.69706 -7.3055,3.62945 -11.44358,4.02437 0.0598,0.004 0.23306,-0.0148 0.17936,0.0116 -0.87146,0.43159 -3.61566,0.61185 -4.61411,0.70802 -2.31703,0.17085 -4.64206,0.16222 -6.96389,0.16857 -2.12719,0.003 -4.25437,0 -6.38156,-0.003 -2.75445,0.0183 -5.48619,-0.44432 -8.16759,-1.03294 -2.62048,-0.71652 -5.19119,-1.47947 -7.56125,-2.85226 -0.65453,-0.37912 -1.24371,-0.86124 -1.86557,-1.29185 -2.7697,-1.80271 -4.854,-4.28836 -6.62238,-7.03805 -0.9467,-1.83849 -1.9085,-3.65686 -2.71665,-5.56149 -0.59748,-1.65909 -1.30138,-3.50159 -1.79771,-5.93636 0.0375,0.20268 0.12735,0.40244 0.11262,0.60805 -0.01,0.13826 -0.0883,-0.26286 -0.12782,-0.39573 -0.0975,-0.3278 -0.19772,-0.655 -0.28317,-0.98615 -0.31649,-1.22646 -0.50716,-2.45268 -0.66395,-3.7075 -0.203,-2.05668 -0.20202,-4.12616 -0.20963,-6.19071 -0.0666,-2.27063 0.0284,-4.51755 0.4323,-6.75658 0.71249,-2.71667 1.86801,-5.28307 3.84227,-7.33289 0.61915,-0.64286 1.32175,-1.19981 1.97682,-1.80603 1.57872,-1.36865 3.38849,-2.42439 5.06483,-3.65359 2.06054,-1.42027 4.3987,-2.35005 6.83181,-2.89738 1.30018,-0.29248 2.17653,-0.30773 1.42809,-0.2873 0.16522,-0.0446 0.65822,-0.18718 0.49567,-0.13367 -0.34174,0.1125 -0.68362,0.22756 -1.03365,0.31077 -0.0946,0.0225 0.17208,-0.0913 0.26235,-0.12741 1.5841,-0.63353 3.11022,-1.07418 4.77685,-1.42157 2.18765,-0.3913 4.41171,-0.45369 6.6279,-0.48134 2.14163,-0.0104 4.28331,-0.002 6.42495,7.9e-4 2.9264,-0.13944 5.79786,0.29396 8.63555,0.95123 2.7724,0.70575 5.2182,2.15194 7.52744,3.79054 0.47954,0.3969 0.95908,0.7938 1.43862,1.19071 11.98223,10.65762 -3.08993,27.60305 -15.07216,16.94543 v 0 c 0.1603,0.11295 0.3206,0.22591 0.4809,0.33886 -2.3058,-1.64511 0.16552,0.15743 -0.14278,-0.18816 -0.13876,-0.15553 -0.73919,-0.23556 -0.54392,-0.30847 0.21508,-0.0803 1.10335,0.43587 0.33432,0.10771 0.20256,0.0262 0.8075,0.12109 0.60769,0.0787 -1.16089,-0.24628 -2.04044,-0.2623 -3.29904,-0.228 -2.04178,-0.003 -4.08359,-0.0101 -6.12537,-0.002 -0.88025,0.009 -1.76039,0.0247 -2.6391,0.0802 0.18622,-0.11804 0.78482,-0.40081 0.58203,-0.31428 -1.26037,0.5378 -2.509,1.13782 -3.86067,1.41745 -2.7439,0.61888 -1.55888,0.40354 -0.64934,-0.27061 0.1092,-0.0809 -0.23272,0.14049 -0.34908,0.21074 -0.0279,0.0186 -1.24783,0.7631 -1.58747,1.02081 -0.51416,0.39015 -0.97558,0.8593 -1.53717,1.17742 -0.076,0.043 0.12556,-0.12134 0.18833,-0.18201 -0.26005,0.22264 -0.87636,0.99645 -0.78016,0.66791 0.11298,-0.38585 0.57621,-0.5623 0.83847,-0.86704 0.87406,-1.01561 1.27438,-2.14699 1.50856,-3.4171 -0.0156,-2.65111 -0.003,2.05569 -0.007,2.30588 0.004,1.23105 0.005,2.463 0.0627,3.69295 0.0276,0.97513 0.71569,1.92197 0.73076,2.93307 -0.58288,-1.24986 1.42531,3.50724 0.55322,1.63779 -0.53653,-0.77921 2.16556,4.01757 1.06079,2.24054 -0.66744,-0.73151 0.11694,0.10363 -0.0716,-0.0217 -0.17514,-0.11641 -0.30755,-0.2877 -0.47313,-0.41736 -0.0277,-0.0217 -0.12741,-0.0552 -0.10078,-0.0321 0.22801,0.19779 1.20029,0.90835 1.37643,1.03867 -2.85586,-1.22534 -0.17959,0.0612 0.81742,0.21762 1.26928,0.28415 2.36053,0.53135 3.29053,0.49754 2.09967,0.002 4.19933,0.006 6.299,0.003 1.68559,-0.004 3.37279,0.005 5.05663,-0.0831 1.49332,-0.0645 2.91467,-0.64952 4.41161,-0.71772 1.9857,-0.12911 -0.70535,0.39156 -1.36655,1.38415 0.0302,-0.0199 0.11227,-0.0888 0.0906,-0.0598 -0.12633,0.1689 -0.54047,0.64775 -0.40774,0.48384 1.63496,-2.01903 -1.96452,3.22314 0.22502,-0.36321 -0.92827,2.35357 0.0646,-1.05507 -0.39079,1.38036 -0.0498,0.26609 0.0889,1.07089 0.01,0.81206 -0.0778,-0.25392 0,-0.53114 -1e-5,-0.79671 0,-1.77579 -1e-5,-3.55159 5.3e-4,-5.32739 8e-4,-1.73069 0.002,-3.46138 0.005,-5.19207 0.003,-1.41792 0.01,-2.83593 -0.008,-4.25378 -0.016,-0.79834 -0.025,-1.60029 -0.1291,-2.39312 -0.31346,-1.63464 -0.90695,-3.21533 -1.06999,-4.88165 -3.14496,-15.72476 19.09321,-20.1724 22.23817,-4.44764 z"
             id="path4009"
             style="fill:#0000ff;stroke-width:0.26458332" />
          <path
             inkscape:connector-curvature="0"
             d="m 197.17379,200.43177 c 0.006,-0.11656 1.01237,5.03111 0.96692,4.06837 0.34012,1.18548 0.72286,2.33571 1.00848,3.4503 0.0601,0.23463 -0.14299,-0.46284 -0.21448,-0.69425 0.88654,1.95798 1.44739,3.80492 2.02198,5.83771 0.34096,2.07822 0.44965,2.40123 0.98795,4.06071 0.77558,2.56515 1.13513,5.23643 1.55688,7.87838 0.30905,0.96748 0.71743,1.91769 1.21432,3.54714 -0.0373,-0.14171 -0.0539,-0.29055 -0.11195,-0.42513 -0.22313,-0.51763 -0.50142,-1.01013 -0.729,-1.52583 -0.0316,-0.0716 0.0969,0.12324 0.13909,0.18911 1.14975,1.79336 0.47103,0.72018 1.60432,2.91642 0.0676,0.13099 -0.11704,-0.27059 -0.17556,-0.40588 0.81321,1.55447 0.0733,0.0956 1.06595,2.26218 0.0909,0.19833 -0.40982,-0.75493 -0.25247,-0.60382 0.81323,0.78098 0.13392,1.25565 -0.12764,-0.18172 -0.0491,-0.26968 0.30529,0.45535 0.45794,0.68302 -0.17789,-0.25251 -0.35578,-0.50502 -0.53366,-0.75753 10.51681,12.10602 -6.60368,26.97903 -17.12049,14.87302 v 0 c -0.41163,-0.52158 -0.82326,-1.04315 -1.2349,-1.56473 -0.85741,-1.32731 -1.50602,-2.46047 -2.1818,-3.86857 -0.0324,-0.0675 0.37489,0.71593 0.1144,0.19336 -0.23996,-0.46105 -0.49875,-0.91278 -0.71988,-1.38316 -0.14613,-0.31083 0.73672,1.1595 0.54642,0.87358 -1.02839,-1.54514 -2.02526,-3.13381 -2.51793,-4.944 -0.0485,-0.45532 -0.42228,-1.19058 -0.53943,-1.52893 -0.54532,-1.57496 -0.99509,-3.15093 -1.29576,-4.79245 -0.23361,-1.48209 -0.46644,-2.97651 -0.73329,-4.44438 -0.56077,-1.73323 -1.17663,-3.49041 -1.35452,-5.31408 -0.19569,-0.67126 -0.4512,-1.32436 -0.63998,-1.9976 -0.0488,-0.17421 0.13651,0.33529 0.21347,0.49903 0.0111,0.0237 -0.0101,-0.0513 -0.0151,-0.077 -0.11391,-0.24662 -0.22783,-0.49325 -0.34174,-0.73987 -0.7239,-1.81923 -1.30708,-3.65591 -1.82618,-5.53996 -0.54759,-2.01587 -1.02913,-4.05463 -1.47053,-6.09582 -3.14495,-15.72476 19.09322,-20.17239 22.23817,-4.44763 z"
             id="path4011"
             style="fill:#0000ff;stroke-width:0.26458332" />
        </g>
      </g>
    </g>
  </g>
</svg>
